<?xml version="1.0" encoding="UTF-8" standalone="no"?>
<!DOCTYPE svg PUBLIC "-//W3C//DTD SVG 1.1//EN"
 "http://www.w3.org/Graphics/SVG/1.1/DTD/svg11.dtd">
<!-- Generated by graphviz version 2.43.0 (0)
 -->
<!-- Title: pastafarianism Pages: 1 -->
<svg width="815pt" height="424pt"
 viewBox="0.00 0.00 815.46 424.00" xmlns="http://www.w3.org/2000/svg" xmlns:xlink="http://www.w3.org/1999/xlink">
<g id="graph0" class="graph" transform="scale(1 1) rotate(0) translate(4 420)">
<title>pastafarianism</title>
<polygon fill="white" stroke="transparent" points="-4,4 -4,-420 811.46,-420 811.46,4 -4,4"/>
<!-- Root -->
<g id="node1" class="node">
<title>Root</title>
<polygon fill="gold" stroke="black" points="323.89,-416 181.8,-416 145.25,-360 287.34,-360 323.89,-416"/>
<text text-anchor="middle" x="234.57" y="-390.8" font-family="Times,serif" font-size="9.00">Root</text>
<text text-anchor="middle" x="234.57" y="-380.8" font-family="Times,serif" font-size="9.00">SuccessOnOne</text>
</g>
<!-- Selector Total -->
<g id="node2" class="node">
<title>Selector Total</title>
<polygon fill="cyan" stroke="black" points="292.05,-298.54 292.05,-313.46 258.38,-324 210.76,-324 177.08,-313.46 177.08,-298.54 210.76,-288 258.38,-288 292.05,-298.54"/>
<text text-anchor="middle" x="234.57" y="-303.8" font-family="Times,serif" font-size="9.00">Ⓜ Selector Total</text>
</g>
<!-- Root&#45;&gt;Selector Total -->
<g id="edge1" class="edge">
<title>Root&#45;&gt;Selector Total</title>
<path fill="none" stroke="black" d="M234.57,-359.92C234.57,-351.72 234.57,-342.72 234.57,-334.49"/>
<polygon fill="black" stroke="black" points="238.07,-334.27 234.57,-324.27 231.07,-334.27 238.07,-334.27"/>
</g>
<!-- Sequence_End -->
<g id="node3" class="node">
<title>Sequence_End</title>
<polygon fill="orange" stroke="black" points="208.07,-252 111.07,-252 111.07,-216 208.07,-216 208.07,-252"/>
<text text-anchor="middle" x="159.57" y="-231.8" font-family="Times,serif" font-size="9.00">Ⓜ Sequence_End</text>
</g>
<!-- Selector Total&#45;&gt;Sequence_End -->
<g id="edge2" class="edge">
<title>Selector Total&#45;&gt;Sequence_End</title>
<path fill="none" stroke="black" d="M216.03,-287.7C206.77,-279.05 195.41,-268.45 185.31,-259.03"/>
<polygon fill="black" stroke="black" points="187.59,-256.37 177.9,-252.1 182.82,-261.49 187.59,-256.37"/>
</g>
<!-- Sequence_one -->
<g id="node6" class="node">
<title>Sequence_one</title>
<polygon fill="orange" stroke="black" points="358.07,-252 263.07,-252 263.07,-216 358.07,-216 358.07,-252"/>
<text text-anchor="middle" x="310.57" y="-231.8" font-family="Times,serif" font-size="9.00">Ⓜ Sequence_one</text>
</g>
<!-- Selector Total&#45;&gt;Sequence_one -->
<g id="edge5" class="edge">
<title>Selector Total&#45;&gt;Sequence_one</title>
<path fill="none" stroke="black" d="M253.36,-287.7C262.74,-279.05 274.25,-268.45 284.48,-259.03"/>
<polygon fill="black" stroke="black" points="287.01,-261.45 292,-252.1 282.27,-256.3 287.01,-261.45"/>
</g>
<!-- Check Done -->
<g id="node4" class="node">
<title>Check Done</title>
<ellipse fill="gray" stroke="black" cx="41.57" cy="-162" rx="41.64" ry="18"/>
<text text-anchor="middle" x="41.57" y="-159.8" font-family="Times,serif" font-size="9.00">Check Done</text>
</g>
<!-- Sequence_End&#45;&gt;Check Done -->
<g id="edge3" class="edge">
<title>Sequence_End&#45;&gt;Check Done</title>
<path fill="none" stroke="black" d="M130.7,-215.88C113.5,-205.67 91.64,-192.7 73.87,-182.16"/>
<polygon fill="black" stroke="black" points="75.38,-178.99 64.99,-176.9 71.81,-185.01 75.38,-178.99"/>
</g>
<!-- Reach Last Target -->
<g id="node5" class="node">
<title>Reach Last Target</title>
<ellipse fill="gray" stroke="black" cx="159.57" cy="-162" rx="58.13" ry="18"/>
<text text-anchor="middle" x="159.57" y="-159.8" font-family="Times,serif" font-size="9.00">Reach Last Target</text>
</g>
<!-- Sequence_End&#45;&gt;Reach Last Target -->
<g id="edge4" class="edge">
<title>Sequence_End&#45;&gt;Reach Last Target</title>
<path fill="none" stroke="black" d="M159.57,-215.7C159.57,-207.98 159.57,-198.71 159.57,-190.11"/>
<polygon fill="black" stroke="black" points="163.07,-190.1 159.57,-180.1 156.07,-190.1 163.07,-190.1"/>
</g>
<!-- Selector Grab Cube -->
<g id="node7" class="node">
<title>Selector Grab Cube</title>
<polygon fill="cyan" stroke="black" points="385.55,-154.54 385.55,-169.46 341.63,-180 279.51,-180 235.59,-169.46 235.59,-154.54 279.51,-144 341.63,-144 385.55,-154.54"/>
<text text-anchor="middle" x="310.57" y="-159.8" font-family="Times,serif" font-size="9.00">Ⓜ Selector Grab Cube</text>
</g>
<!-- Sequence_one&#45;&gt;Selector Grab Cube -->
<g id="edge6" class="edge">
<title>Sequence_one&#45;&gt;Selector Grab Cube</title>
<path fill="none" stroke="black" d="M310.57,-215.7C310.57,-207.98 310.57,-198.71 310.57,-190.11"/>
<polygon fill="black" stroke="black" points="314.07,-190.1 310.57,-180.1 307.07,-190.1 314.07,-190.1"/>
</g>
<!-- Selector Let Cube -->
<g id="node13" class="node">
<title>Selector Let Cube</title>
<polygon fill="cyan" stroke="black" points="642.55,-154.54 642.55,-169.46 601.56,-180 543.58,-180 502.59,-169.46 502.59,-154.54 543.58,-144 601.56,-144 642.55,-154.54"/>
<text text-anchor="middle" x="572.57" y="-159.8" font-family="Times,serif" font-size="9.00">Ⓜ Selector Let Cube</text>
</g>
<!-- Sequence_one&#45;&gt;Selector Let Cube -->
<g id="edge12" class="edge">
<title>Sequence_one&#45;&gt;Selector Let Cube</title>
<path fill="none" stroke="black" d="M358.32,-220.24C402.69,-208.39 468.82,-190.72 515.86,-178.15"/>
<polygon fill="black" stroke="black" points="516.83,-181.51 525.59,-175.55 515.02,-174.75 516.83,-181.51"/>
</g>
<!-- Check Has_Cube -->
<g id="node8" class="node">
<title>Check Has_Cube</title>
<ellipse fill="gray" stroke="black" cx="143.57" cy="-90" rx="54.04" ry="18"/>
<text text-anchor="middle" x="143.57" y="-87.8" font-family="Times,serif" font-size="9.00">Check Has_Cube</text>
</g>
<!-- Selector Grab Cube&#45;&gt;Check Has_Cube -->
<g id="edge7" class="edge">
<title>Selector Grab Cube&#45;&gt;Check Has_Cube</title>
<path fill="none" stroke="black" d="M273.09,-145.29C247.05,-134.38 212.33,-119.82 185.4,-108.53"/>
<polygon fill="black" stroke="black" points="186.43,-105.17 175.86,-104.53 183.72,-111.63 186.43,-105.17"/>
</g>
<!-- Sequence_grab -->
<g id="node9" class="node">
<title>Sequence_grab</title>
<polygon fill="orange" stroke="black" points="315.57,-108 215.57,-108 215.57,-72 315.57,-72 315.57,-108"/>
<text text-anchor="middle" x="265.57" y="-87.8" font-family="Times,serif" font-size="9.00">Ⓜ Sequence_grab</text>
</g>
<!-- Selector Grab Cube&#45;&gt;Sequence_grab -->
<g id="edge8" class="edge">
<title>Selector Grab Cube&#45;&gt;Sequence_grab</title>
<path fill="none" stroke="black" d="M299.45,-143.7C294.21,-135.56 287.87,-125.69 282.09,-116.7"/>
<polygon fill="black" stroke="black" points="284.92,-114.62 276.56,-108.1 279.03,-118.41 284.92,-114.62"/>
</g>
<!-- Reach Target Cube -->
<g id="node12" class="node">
<title>Reach Target Cube</title>
<ellipse fill="gray" stroke="black" cx="394.57" cy="-90" rx="60.74" ry="18"/>
<text text-anchor="middle" x="394.57" y="-87.8" font-family="Times,serif" font-size="9.00">Reach Target Cube</text>
</g>
<!-- Selector Grab Cube&#45;&gt;Reach Target Cube -->
<g id="edge11" class="edge">
<title>Selector Grab Cube&#45;&gt;Reach Target Cube</title>
<path fill="none" stroke="black" d="M331.33,-143.7C342.23,-134.62 355.71,-123.38 367.42,-113.62"/>
<polygon fill="black" stroke="black" points="369.75,-116.24 375.2,-107.14 365.27,-110.86 369.75,-116.24"/>
</g>
<!-- Check At_Cube -->
<g id="node10" class="node">
<title>Check At_Cube</title>
<ellipse fill="gray" stroke="black" cx="212.57" cy="-18" rx="49.8" ry="18"/>
<text text-anchor="middle" x="212.57" y="-15.8" font-family="Times,serif" font-size="9.00">Check At_Cube</text>
</g>
<!-- Sequence_grab&#45;&gt;Check At_Cube -->
<g id="edge9" class="edge">
<title>Sequence_grab&#45;&gt;Check At_Cube</title>
<path fill="none" stroke="black" d="M252.47,-71.7C246.08,-63.27 238.29,-52.97 231.3,-43.73"/>
<polygon fill="black" stroke="black" points="233.98,-41.48 225.15,-35.62 228.4,-45.71 233.98,-41.48"/>
</g>
<!-- Grab Cube -->
<g id="node11" class="node">
<title>Grab Cube</title>
<ellipse fill="gray" stroke="black" cx="318.57" cy="-18" rx="38.87" ry="18"/>
<text text-anchor="middle" x="318.57" y="-15.8" font-family="Times,serif" font-size="9.00">Grab Cube</text>
</g>
<!-- Sequence_grab&#45;&gt;Grab Cube -->
<g id="edge10" class="edge">
<title>Sequence_grab&#45;&gt;Grab Cube</title>
<path fill="none" stroke="black" d="M278.67,-71.7C285.15,-63.14 293.07,-52.67 300.15,-43.33"/>
<polygon fill="black" stroke="black" points="303.1,-45.23 306.35,-35.14 297.52,-41 303.1,-45.23"/>
</g>
<!-- Check Empty -->
<g id="node14" class="node">
<title>Check Empty</title>
<ellipse fill="gray" stroke="black" cx="518.57" cy="-90" rx="45.07" ry="18"/>
<text text-anchor="middle" x="518.57" y="-87.8" font-family="Times,serif" font-size="9.00">Check Empty</text>
</g>
<!-- Selector Let Cube&#45;&gt;Check Empty -->
<g id="edge13" class="edge">
<title>Selector Let Cube&#45;&gt;Check Empty</title>
<path fill="none" stroke="black" d="M559.22,-143.7C552.72,-135.27 544.78,-124.97 537.65,-115.73"/>
<polygon fill="black" stroke="black" points="540.27,-113.4 531.39,-107.62 534.73,-117.68 540.27,-113.4"/>
</g>
<!-- Sequence_let -->
<g id="node15" class="node">
<title>Sequence_let</title>
<polygon fill="orange" stroke="black" points="671.57,-108 581.57,-108 581.57,-72 671.57,-72 671.57,-108"/>
<text text-anchor="middle" x="626.57" y="-87.8" font-family="Times,serif" font-size="9.00">Ⓜ Sequence_let</text>
</g>
<!-- Selector Let Cube&#45;&gt;Sequence_let -->
<g id="edge14" class="edge">
<title>Selector Let Cube&#45;&gt;Sequence_let</title>
<path fill="none" stroke="black" d="M585.92,-143.7C592.33,-135.39 600.13,-125.28 607.17,-116.14"/>
<polygon fill="black" stroke="black" points="610.04,-118.16 613.37,-108.1 604.5,-113.88 610.04,-118.16"/>
</g>
<!-- Reach Target Zero -->
<g id="node18" class="node">
<title>Reach Target Zero</title>
<ellipse fill="gray" stroke="black" cx="748.57" cy="-90" rx="58.78" ry="18"/>
<text text-anchor="middle" x="748.57" y="-87.8" font-family="Times,serif" font-size="9.00">Reach Target Zero</text>
</g>
<!-- Selector Let Cube&#45;&gt;Reach Target Zero -->
<g id="edge17" class="edge">
<title>Selector Let Cube&#45;&gt;Reach Target Zero</title>
<path fill="none" stroke="black" d="M610.33,-145.98C638,-134.98 675.65,-120 704.67,-108.46"/>
<polygon fill="black" stroke="black" points="706.16,-111.63 714.16,-104.69 703.57,-105.13 706.16,-111.63"/>
</g>
<!-- Check At_Zero -->
<g id="node16" class="node">
<title>Check At_Zero</title>
<ellipse fill="gray" stroke="black" cx="577.57" cy="-18" rx="47.84" ry="18"/>
<text text-anchor="middle" x="577.57" y="-15.8" font-family="Times,serif" font-size="9.00">Check At_Zero</text>
</g>
<!-- Sequence_let&#45;&gt;Check At_Zero -->
<g id="edge15" class="edge">
<title>Sequence_let&#45;&gt;Check At_Zero</title>
<path fill="none" stroke="black" d="M614.46,-71.7C608.62,-63.35 601.5,-53.18 595.08,-44.02"/>
<polygon fill="black" stroke="black" points="597.81,-41.81 589.2,-35.62 592.07,-45.82 597.81,-41.81"/>
</g>
<!-- LetCube -->
<g id="node17" class="node">
<title>LetCube</title>
<ellipse fill="gray" stroke="black" cx="675.57" cy="-18" rx="32.16" ry="18"/>
<text text-anchor="middle" x="675.57" y="-15.8" font-family="Times,serif" font-size="9.00">LetCube</text>
</g>
<!-- Sequence_let&#45;&gt;LetCube -->
<g id="edge16" class="edge">
<title>Sequence_let&#45;&gt;LetCube</title>
<path fill="none" stroke="black" d="M638.68,-71.7C644.61,-63.23 651.85,-52.89 658.34,-43.61"/>
<polygon fill="black" stroke="black" points="661.4,-45.34 664.27,-35.14 655.67,-41.33 661.4,-45.34"/>
</g>
</g>
</svg>
